<?xml version="1.0" ?>
<svg xmlns="http://www.w3.org/2000/svg" viewBox="0 0 1024 1024">
	<path d="M 477 181 L 476 182 473 182 472 183 470 183 469 184 467 184 466 185 465 185 463 187 462 187 456 193 456 194 455 195 455 196 454 197 454 198 453 199 453 200 452 201 452 203 451 204 451 209 450 210 450 219 449 220 449 226 448 227 448 231 447 232 447 234 446 235 446 236 445 237 445 238 438 245 437 245 435 247 434 247 433 248 431 248 430 249 428 249 427 250 426 250 425 251 423 251 422 252 420 252 419 253 418 253 417 254 415 254 414 255 413 255 412 256 411 256 410 257 408 257 407 258 406 258 405 259 404 259 403 260 401 260 400 261 399 261 398 262 397 262 396 263 395 263 394 264 393 264 392 265 391 265 390 266 388 266 387 267 386 267 385 268 383 268 382 269 379 269 378 270 371 270 370 269 367 269 366 268 365 268 364 267 363 267 362 266 361 266 359 264 358 264 354 260 353 260 348 255 347 255 341 249 340 249 337 246 336 246 335 245 334 245 333 244 332 244 331 243 329 243 328 242 325 242 324 241 319 241 318 242 315 242 314 243 313 243 312 244 311 244 310 245 309 245 308 246 307 246 304 249 303 249 294 258 294 259 253 300 253 301 250 304 250 305 249 306 249 307 248 308 248 309 247 310 247 311 246 312 246 314 245 315 245 319 244 320 244 324 245 325 245 329 246 330 246 332 247 333 247 334 248 335 248 336 249 337 249 338 252 341 252 342 258 348 258 349 263 354 263 355 266 358 266 359 267 360 267 361 268 362 268 363 269 364 269 366 270 367 270 371 271 372 271 376 270 377 270 381 269 382 269 384 268 385 268 387 267 388 267 389 266 390 266 391 265 392 265 393 264 394 264 395 263 396 263 397 262 398 262 399 261 400 261 401 260 402 260 403 259 404 259 405 258 406 258 408 257 409 257 410 256 411 256 413 255 414 255 415 254 416 254 418 253 419 253 420 252 421 252 423 251 424 251 426 250 427 250 428 249 429 249 430 248 431 248 432 247 433 247 434 246 435 246 436 243 439 243 440 238 445 237 445 235 447 234 447 233 448 231 448 230 449 228 449 227 450 222 450 221 451 213 451 212 452 206 452 205 453 201 453 200 454 199 454 198 455 196 455 194 457 193 457 186 464 186 465 184 467 184 468 183 469 183 471 182 472 182 475 181 476 181 549 182 550 182 552 183 553 183 555 184 556 184 557 186 559 186 560 193 567 194 567 195 568 196 568 197 569 198 569 199 570 201 570 202 571 206 571 207 572 213 572 214 573 221 573 222 574 226 574 227 575 229 575 230 576 232 576 233 577 234 577 235 578 236 578 237 579 238 579 244 585 244 586 247 589 247 590 248 591 248 592 249 593 249 594 250 595 250 596 251 597 251 599 252 600 252 601 253 602 253 604 254 605 254 606 255 607 255 609 256 610 256 611 257 612 257 613 258 614 258 616 259 617 259 618 260 619 260 620 261 621 261 622 262 623 262 625 263 626 263 627 264 628 264 629 265 630 265 631 266 632 266 633 267 634 267 635 268 636 268 638 269 639 269 641 270 642 270 650 269 651 269 654 268 655 268 657 267 658 267 659 266 660 266 661 265 662 265 663 264 664 264 665 263 666 263 667 260 670 260 671 256 675 256 676 250 682 250 683 248 685 248 686 247 687 247 688 246 689 246 690 245 691 245 694 244 695 244 704 245 705 245 708 246 709 246 711 247 712 247 713 248 714 248 715 249 716 249 717 250 718 250 719 252 721 252 722 283 753 283 754 299 770 300 770 303 773 304 773 306 775 307 775 308 776 309 776 310 777 312 777 313 778 315 778 316 779 328 779 329 778 332 778 333 777 335 777 336 776 337 776 339 774 340 774 342 772 343 772 348 767 349 767 355 761 356 761 359 758 360 758 361 757 362 757 364 755 366 755 367 754 369 754 370 753 381 753 382 754 385 754 386 755 387 755 388 756 389 756 390 757 391 757 392 758 393 758 394 759 396 759 397 760 398 760 399 761 400 761 401 762 402 762 403 763 404 763 405 764 406 764 407 765 409 765 410 766 411 766 412 767 413 767 414 768 416 768 417 769 419 769 420 770 422 770 423 771 424 771 425 772 427 772 428 773 429 773 431 775 432 775 433 776 434 776 443 785 443 786 445 788 445 789 446 790 446 792 447 793 447 795 448 796 448 798 449 799 449 806 450 807 450 816 451 817 451 821 452 822 452 824 453 825 453 826 454 827 454 828 455 829 455 830 462 837 463 837 465 839 466 839 467 840 468 840 469 841 471 841 472 842 476 842 477 843 543 843 544 842 549 842 550 841 552 841 553 840 555 840 556 839 557 839 559 837 560 837 567 830 567 829 568 828 568 827 569 826 569 825 570 824 570 823 571 822 571 818 572 817 572 809 573 808 573 803 574 802 574 798 575 797 575 794 576 793 576 791 577 790 577 789 578 788 578 786 579 785 579 784 582 781 582 780 585 777 586 777 589 774 590 774 591 773 592 773 593 772 595 772 596 771 598 771 599 770 601 770 602 769 604 769 605 768 607 768 608 767 610 767 611 766 612 766 613 765 615 765 616 764 617 764 618 763 619 763 620 762 622 762 623 761 624 761 625 760 626 760 627 759 628 759 629 758 630 758 631 757 632 757 633 756 634 756 635 755 636 755 637 754 639 754 640 753 642 753 643 752 654 752 655 753 657 753 658 754 659 754 660 755 661 755 662 756 663 756 665 758 666 758 668 760 669 760 676 767 677 767 682 772 683 772 685 774 686 774 687 775 688 775 689 776 690 776 691 777 693 777 694 778 696 778 697 779 705 779 706 778 709 778 710 777 711 777 712 776 713 776 714 775 715 775 716 774 717 774 720 771 721 771 749 743 749 742 750 741 751 741 770 722 770 721 773 718 773 717 775 715 775 714 776 713 776 712 777 711 777 709 778 708 778 704 779 703 779 697 778 696 778 693 777 692 777 690 776 689 776 688 774 686 774 685 772 683 772 682 765 675 765 674 760 669 760 668 757 665 757 664 756 663 756 662 755 661 755 660 754 659 754 657 753 656 753 652 752 651 752 648 753 647 753 643 754 642 754 640 755 639 755 637 756 636 756 635 757 634 757 632 758 631 758 630 759 629 759 628 760 627 760 626 761 625 761 624 762 623 762 621 763 620 763 619 764 618 764 617 765 616 765 614 766 613 766 612 767 611 767 610 768 609 768 607 769 606 769 605 770 604 770 603 771 602 771 600 772 599 772 598 773 597 773 596 774 595 774 593 776 591 776 590 777 589 777 588 779 586 779 585 785 579 786 579 788 577 789 577 790 576 791 576 792 575 793 575 794 574 798 574 799 573 809 573 810 572 818 572 819 571 822 571 823 570 825 570 826 569 827 569 828 568 829 568 831 566 832 566 836 562 836 561 838 559 838 558 839 557 839 556 840 555 840 553 841 552 841 549 842 548 842 476 841 475 841 472 840 471 840 470 839 469 839 467 837 465 837 464 829 456 828 456 826 454 825 454 824 453 822 453 821 452 819 452 818 451 810 451 809 450 802 450 801 449 796 449 795 448 793 448 792 447 790 447 789 446 788 446 787 445 786 445 785 444 784 444 776 436 776 435 775 434 775 433 774 432 774 431 773 430 773 428 772 427 772 426 771 425 771 423 770 422 770 420 769 419 769 418 768 417 768 415 767 414 767 413 766 412 766 410 765 409 765 408 764 407 764 406 763 405 763 403 762 402 762 401 761 400 761 399 760 398 760 397 759 396 759 395 758 394 758 393 757 392 757 391 756 390 756 389 755 388 755 386 754 385 754 383 753 382 753 378 752 377 752 371 753 370 753 367 754 366 754 364 755 363 755 362 756 361 756 360 757 359 757 358 759 356 759 355 762 352 762 351 766 347 766 346 772 340 772 339 774 337 774 336 775 335 775 334 776 333 776 331 777 330 777 328 778 327 778 316 777 315 777 312 776 311 776 310 775 309 775 308 774 307 774 306 773 305 773 304 771 302 771 301 728 258 728 257 726 255 725 255 721 251 720 251 718 249 717 249 716 248 715 248 714 247 713 247 712 246 710 246 709 245 705 245 704 244 697 244 696 245 693 245 692 246 690 246 689 247 687 247 686 248 685 248 682 251 681 251 677 255 676 255 672 259 671 259 668 262 667 262 666 263 665 263 664 264 663 264 662 265 661 265 660 266 659 266 658 267 657 267 656 268 654 268 653 269 649 269 648 270 643 270 642 269 639 269 638 268 637 268 636 267 634 267 632 265 630 265 629 264 628 264 627 263 626 263 625 262 624 262 623 261 622 261 621 260 620 260 619 259 617 259 616 258 615 258 614 257 612 257 611 256 610 256 609 255 607 255 606 254 605 254 604 253 602 253 601 252 599 252 598 251 597 251 596 250 594 250 593 249 592 249 591 248 590 248 589 247 588 247 587 246 586 246 579 239 579 238 578 237 578 236 577 235 577 233 576 232 576 230 575 229 575 225 574 224 574 214 573 213 573 207 572 206 572 203 571 202 571 200 570 199 570 198 569 197 569 196 566 193 566 192 564 190 563 190 560 187 559 187 557 185 556 185 555 184 554 184 553 183 551 183 550 182 547 182 546 181 Z M 503 319 L 504 318 519 318 520 319 532 319 533 320 540 320 541 321 546 321 547 322 551 322 552 323 556 323 557 324 560 324 561 325 564 325 565 326 567 326 568 327 570 327 571 328 573 328 574 329 576 329 577 330 579 330 580 331 582 331 583 332 584 332 585 333 586 333 587 334 589 334 590 335 591 335 592 336 593 336 594 337 595 337 596 338 597 338 598 339 599 339 600 340 601 340 602 341 603 341 604 342 605 342 607 344 608 344 609 345 610 345 612 347 613 347 614 348 615 348 617 350 618 350 620 352 621 352 624 355 625 355 627 357 628 357 632 361 633 361 638 366 639 366 658 385 658 386 663 391 663 392 666 395 666 396 669 399 669 400 671 402 671 403 673 405 673 406 675 408 675 409 677 411 677 412 678 413 678 414 680 416 680 417 681 418 681 419 682 420 682 421 683 422 683 423 684 424 684 425 685 426 685 427 686 428 686 429 687 430 687 431 688 432 688 433 689 434 689 436 690 437 690 438 691 439 691 440 692 441 692 443 693 444 693 446 694 447 694 449 695 450 695 452 696 453 696 455 697 456 697 458 698 459 698 462 699 463 699 466 700 467 700 470 701 471 701 475 702 476 702 481 703 482 703 490 704 491 704 510 705 511 705 513 704 514 704 531 703 532 703 540 702 541 702 546 701 547 701 551 700 552 700 556 699 557 699 560 698 561 698 563 697 564 697 567 696 568 696 570 695 571 695 573 694 574 694 576 693 577 693 579 692 580 692 582 691 583 691 585 690 586 690 587 689 588 689 589 688 590 688 591 687 592 687 593 686 594 686 595 685 596 685 597 684 598 684 599 683 600 683 601 682 602 682 603 681 604 681 605 680 606 680 607 678 609 678 610 677 611 677 612 675 614 675 615 673 617 673 618 671 620 671 621 669 623 669 624 666 627 666 628 663 631 663 632 658 637 658 638 637 659 636 659 631 664 630 664 627 667 626 667 623 670 622 670 620 672 619 672 617 674 616 674 614 676 613 676 612 677 611 677 609 679 608 679 607 680 606 680 605 681 604 681 603 682 602 682 601 683 600 683 598 685 596 685 595 686 594 686 593 687 592 687 591 688 590 688 589 689 587 689 586 690 585 690 584 691 582 691 581 692 580 692 579 693 577 693 576 694 574 694 573 695 571 695 570 696 567 696 566 697 564 697 563 698 560 698 559 699 556 699 555 700 552 700 551 701 546 701 545 702 540 702 539 703 532 703 531 704 517 704 516 705 506 705 505 704 492 704 491 703 483 703 482 702 477 702 476 701 472 701 471 700 467 700 466 699 463 699 462 698 459 698 458 697 456 697 455 696 453 696 452 695 450 695 449 694 447 694 446 693 444 693 443 692 441 692 440 691 439 691 438 690 436 690 435 689 434 689 433 688 432 688 431 687 430 687 429 686 428 686 427 685 425 685 424 684 423 684 422 683 421 683 419 681 418 681 417 680 416 680 415 679 414 679 412 677 411 677 410 676 409 676 407 674 406 674 405 673 404 673 401 670 400 670 398 668 397 668 394 665 393 665 388 660 387 660 380 653 379 653 371 645 371 644 363 636 363 635 359 631 359 630 356 627 356 626 354 624 354 623 352 621 352 620 350 618 350 617 348 615 348 614 347 613 347 612 345 610 345 609 344 608 344 607 343 606 343 605 342 604 342 603 341 602 341 601 340 600 340 599 339 598 339 597 338 596 338 595 337 594 337 593 336 592 336 591 335 590 335 588 334 587 334 586 333 585 333 583 332 582 332 581 331 580 331 578 330 577 330 575 329 574 329 572 328 571 328 569 327 568 327 565 326 564 326 562 325 561 325 558 324 557 324 554 323 553 323 549 322 548 322 543 321 542 321 536 320 535 320 526 319 525 319 496 320 495 320 487 321 486 321 480 322 479 322 476 323 475 323 471 324 470 324 467 325 466 325 463 326 462 326 459 327 458 327 456 328 455 328 453 329 452 329 450 330 449 330 447 331 446 331 444 332 443 332 442 333 441 333 439 334 438 334 437 335 436 335 434 336 433 336 432 337 431 337 430 338 429 338 428 339 427 339 426 340 425 340 424 341 423 341 422 342 421 342 420 343 419 343 418 345 416 345 415 346 414 346 413 347 412 347 411 349 409 349 408 351 406 351 405 353 403 353 402 355 400 355 399 357 397 357 396 361 392 361 391 365 387 365 386 385 366 386 366 391 361 392 361 396 357 397 357 399 355 400 355 403 352 404 352 406 350 407 350 409 348 410 348 412 346 413 346 414 345 415 345 417 343 418 343 419 342 420 342 421 341 422 341 423 340 424 340 425 339 426 339 427 338 428 338 429 337 430 337 431 336 432 336 433 335 434 335 435 334 437 334 438 333 439 333 440 332 442 332 443 331 444 331 445 330 447 330 448 329 450 329 451 328 453 328 454 327 456 327 457 326 460 326 461 325 463 325 464 324 467 324 468 323 472 323 473 322 477 322 478 321 483 321 484 320 491 320 492 319 Z" fill="black" fill-rule="evenodd"/>
</svg>
